<svg xmlns="http://www.w3.org/2000/svg" width="23" height="23" viewBox="0 0 23 23" fill="none">
  <g clip-path="url(#clip0_2030_1166)">
    <rect y="0.310059" width="22.4687" height="22.4687" fill="#9AD0E6"/>
    <path d="M19.6931 14.0965C17.1451 16.3202 -1.09625 19.9067 -9.89844 21.422V23.6805H23.1966V12.8225C23.0905 12.3206 22.2411 11.8727 19.6931 14.0965Z" fill="#0A2276" stroke="#141414" stroke-width="0.579091"/>
    <path d="M4.10785 10.3558L6.38783 11.1993L7.35574 13.0584L7.02943 15.7645L4.84684 15.614L3.28668 13.0899L4.10785 10.3558Z" fill="#FFF203"/>
    <path d="M0.527344 0.139629L12.9865 0.458033L16.1636 9.46018L13.499 9.8363L11.6783 9.96438L6.28971 8.99012L3.57984 10.0102L0.527344 9.46018V0.139629Z" fill="#0F3EB6"/>
    <g style="mix-blend-mode:hard-light">
      <path d="M4.13053 10.178C1.7806 9.40731 -1.1688 9.30036 -2.83594 9.79293V-0.00537109H16.5945C17.1038 4.24609 16.455 12.1578 9.78557 9.79293C6.38351 8.58662 4.83311 9.16462 4.13053 10.178C6.58725 10.9838 8.38878 12.515 7.38503 14.8452C6.5743 16.7272 3.56302 15.0768 3.56302 13.1079C3.56302 12.5263 3.45576 11.1514 4.13053 10.178Z" fill="#7FB1DF" fill-opacity="0.5"/>
      <path d="M-2.83594 9.79293C0.574084 8.78542 9.3489 10.2862 7.38503 14.8452C6.5743 16.7272 3.56302 15.0768 3.56302 13.1079C3.56302 11.9207 3.1161 7.42805 9.78557 9.79293C16.455 12.1578 17.1038 4.24609 16.5945 -0.00537109H-2.83594V9.79293Z" stroke="#141414" stroke-width="0.579091"/>
    </g>
    <path d="M3.99851 0.13623C3.99851 3.28649 1.16096 3.86172 -0.257812 3.75555V0.13623H3.99851Z" fill="#36A8E9" stroke="#141414" stroke-width="0.579091"/>
    <path d="M24.0789 22.4258H5.60836C6.59579 22.2878 7.60576 22.1283 8.61274 21.9452C12.5764 21.2246 16.5565 20.1295 18.912 18.5156C20.0291 17.7502 20.9008 17.4212 21.5691 17.3592C22.2228 17.2984 22.6962 17.4908 23.0505 17.813C23.4156 18.145 23.6756 18.6357 23.8435 19.1957C24.0107 19.7528 24.0789 20.3529 24.0789 20.8723V22.4258Z" fill="#252214" stroke="#141414" stroke-width="0.706118"/>
    <path d="M13.5297 23.9652L22.5671 2.48058L34.3212 23.9652H13.5297Z" fill="#06080E" fill-opacity="0.5" stroke="#141414" stroke-width="0.579091"/>
    <path d="M23.1425 15.3375C16.3787 18.2792 12.3907 5.7728 11.2422 -0.848145H23.1425V15.3375Z" fill="#36A8E9" stroke="#141414" stroke-width="0.579091"/>
    <path d="M16.7125 0.484375H11.5586C11.8597 3.56514 13.6723 7.82919 14.5409 9.57611C16.5793 8.04731 16.838 2.87795 16.7125 0.484375Z" fill="#E7EB5C" stroke="#141414" stroke-width="0.579091"/>
    <path d="M22.4377 3.20605L17.6602 14.2667C18.6562 16.2588 21.2602 16.1198 22.4377 15.8013V3.20605Z" fill="#0F62D1" stroke="#141414" stroke-width="0.579091"/>
  </g>
  <rect x="0.289546" y="0.599604" width="21.8897" height="21.8897" stroke="#0D0D0D" stroke-width="0.579091"/>
  <defs>
    <clipPath id="clip0_2030_1166">
      <rect y="0.310059" width="22.4687" height="22.4687" fill="white"/>
    </clipPath>
  </defs>
</svg>