<svg width="377" height="177" viewBox="0 0 377 177" fill="none" xmlns="http://www.w3.org/2000/svg">
<path fill-rule="evenodd" clip-rule="evenodd" d="M365.694 151.818C373.623 191.9 384.131 233.34 369.157 271.339C353.849 310.188 320.661 338.925 284.066 358.97C248.099 378.671 206.341 391.624 166.375 382.414C128.458 373.677 105.97 337.708 77.3314 311.331C49.0888 285.318 13.8104 265.447 0.327757 229.479C-14.3564 190.306 -13.1444 146.494 0.755951 107.05C15.4505 65.3526 38.2143 19.9566 79.603 4.52535C120.079 -10.5656 160.318 25.6937 203.115 31.603C243.763 37.2157 290.007 13.7258 323.02 38.1362C356.364 62.7916 357.641 111.115 365.694 151.818Z" fill="url(#paint0_linear_1057_6334)"/>
<defs>
<linearGradient id="paint0_linear_1057_6334" x1="359.794" y1="25.9326" x2="179.008" y2="345.545" gradientUnits="userSpaceOnUse">
<stop stop-color="#2A292A"/>
<stop offset="1" stop-color="#161516"/>
</linearGradient>
</defs>
</svg>
